<?xml version="1.0" encoding="UTF-8" standalone="no"?>
<!-- Created with Inkscape (http://www.inkscape.org/) -->

<svg
   width="210mm"
   height="297mm"
   viewBox="0 0 210 297"
   version="1.1"
   id="svg5"
   inkscape:version="1.2.2 (732a01da63, 2022-12-09)"
   sodipodi:docname="haz.svg"
   xmlns:inkscape="http://www.inkscape.org/namespaces/inkscape"
   xmlns:sodipodi="http://sodipodi.sourceforge.net/DTD/sodipodi-0.dtd"
   xmlns="http://www.w3.org/2000/svg"
   xmlns:svg="http://www.w3.org/2000/svg">
  <sodipodi:namedview
     id="namedview7"
     pagecolor="#ffffff"
     bordercolor="#000000"
     borderopacity="0.25"
     inkscape:showpageshadow="2"
     inkscape:pageopacity="0.0"
     inkscape:pagecheckerboard="0"
     inkscape:deskcolor="#d1d1d1"
     inkscape:document-units="mm"
     showgrid="false"
     inkscape:zoom="0.72515432"
     inkscape:cx="137.90168"
     inkscape:cy="597.11428"
     inkscape:window-width="1920"
     inkscape:window-height="1001"
     inkscape:window-x="-9"
     inkscape:window-y="-9"
     inkscape:window-maximized="1"
     inkscape:current-layer="layer1" />
  <defs
     id="defs2" />
  <g
     inkscape:label="Layer 1"
     inkscape:groupmode="layer"
     id="layer1">
    <rect
       style="fill:#0000ff;stroke-width:0.264583;stroke:#280b0b"
       id="rect111"
       width="210.52702"
       height="160.54054"
       x="0"
       y="-7.410307e-08"
       ry="0" />
    <g
       id="moonGroup">
      <circle
         style="fill:#ffffff;fill-opacity:0;stroke:none;stroke-width:2;stroke-dasharray:none;stroke-opacity:1"
         id="moonCenter"
         cx="171.85135"
         cy="245.18918"
         r="4.0135136" />
      <path
         style="fill:#ffffff;fill-opacity:1;stroke:#000000;stroke-width:2;stroke-dasharray:none;stroke-opacity:1"
         d="m 176.95946,272.55405 c -3.86365,-0.14685 -8.04616,-1.47221 -11.31081,-3.64865 -0.28623,-0.19081 -0.43476,-0.55274 -0.72973,-0.72972 -0.3298,-0.19788 -0.7648,-0.16699 -1.0946,-0.36487 -3.39368,-2.03621 2.55712,0.73126 -1.82432,-1.45946 -1.12289,-0.56144 -2.57488,-0.8152 -3.64865,-1.45946 -1.01557,-0.60934 -0.50194,-0.66925 -1.09459,-1.45946 -1.96835,-2.62446 0.40513,0.77001 -1.45946,-1.09459 -0.086,-0.086 0.0675,-0.26367 0,-0.36487 -0.52324,-0.78485 -1.39416,-1.32884 -1.82433,-2.18919 -0.10878,-0.21756 0.10878,-0.51216 0,-0.72973 -0.30743,-0.61486 -0.84349,-0.70615 -1.09459,-1.45946 -0.30654,-0.9196 -0.65941,-10.79204 -0.36487,-11.67567 0.27739,-0.83215 0.92391,-1.70061 1.0946,-2.55406 0.15856,-0.7928 -0.19605,-1.76986 0,-2.55405 0.0417,-0.16686 0.24324,-0.24324 0.36486,-0.36486 0.12162,-0.36487 0.28944,-0.71747 0.36487,-1.0946 0.0645,-0.32245 0.26621,-2.40607 0.36486,-2.55405 0.19082,-0.28623 0.53891,-0.44351 0.72973,-0.72973 0.0675,-0.1012 0,-0.24325 0,-0.36487 0.12162,-0.24324 0.20169,-0.51217 0.36487,-0.72973 0.66008,-0.8801 1.46574,-2.56033 2.18919,-3.28378 0.1923,-0.1923 0.53742,-0.17257 0.72973,-0.36487 0.086,-0.086 -0.0544,-0.25608 0,-0.36486 0.41076,-0.82153 1.27295,-1.45404 1.82432,-2.18919 0.73222,-0.97629 0.61685,-2.07631 1.45946,-2.91892 0.086,-0.086 0.24324,0 0.36486,0 0.24325,-0.24324 0.53892,-0.44351 0.72973,-0.72973 0.11425,-0.17136 0.25063,-0.92323 0.36487,-1.09459 0.32364,-0.48547 1.11738,-0.75252 1.45946,-1.0946 0.086,-0.086 -0.0544,-0.25608 0,-0.36486 0.63374,-1.26749 2.43226,-2.14842 3.28378,-3.28379 0.16317,-0.21756 0.13859,-0.57887 0.36487,-0.72973 0.20239,-0.13492 0.51216,0.10879 0.72973,0 0.83927,-0.41963 1.34184,-1.40065 2.18919,-1.82432 0.21756,-0.10878 0.51216,0.10878 0.72972,0 0.65828,-0.32914 1.18449,-1.13954 1.82433,-1.45946 0.10878,-0.0544 0.27886,0.086 0.36486,0 0.086,-0.086 -0.086,-0.27887 0,-0.36487 0.35207,-0.35206 2.0736,-0.85436 2.55406,-1.09459 0.90173,-0.45086 -0.12595,-0.36486 0.72973,-0.36486 0.38543,0 1.96749,-0.95143 2.18919,-0.72973 0.76305,0.76305 -0.94385,1.73696 -1.0946,2.18918 -0.11538,0.34615 0.16318,0.76825 0,1.0946 -0.10176,0.20353 -0.99587,1.36074 -1.09459,1.45946 -0.086,0.086 -0.2974,-0.1012 -0.36487,0 -0.38377,0.57567 -0.8121,1.6242 -1.09459,2.18919 -0.75924,1.51848 0.0252,-0.39006 -0.72973,0.36486 -1.02737,0.0226 -0.0929,0.82264 -0.36486,1.0946 -0.086,0.086 -0.27887,-0.086 -0.36487,0 -0.086,0.086 0.0544,0.25608 0,0.36486 -0.15384,0.30768 -0.53891,0.44351 -0.72973,0.72973 -0.21334,0.32001 -0.0929,0.82264 -0.36486,1.0946 -0.19231,0.1923 -0.56656,0.1473 -0.72974,0.36486 -0.93488,1.24651 -0.36486,4.67837 -0.36486,6.2027 0,4.13514 0,8.27028 0,12.40541 0,2.43805 -0.63882,8.57371 0.36486,10.58108 0.37267,0.74534 -0.0963,5.9139 0.36487,7.2973 0.0385,0.11538 0.27886,-0.086 0.36487,0 0.17199,0.172 -0.10879,0.51216 0,0.72973 0.0769,0.15384 0.28794,0.21102 0.36486,0.36486 0.28331,0.56662 -0.1999,1.5895 0,2.18919 0.3569,1.0707 2.07873,1.47621 2.55405,2.18919 0.13493,0.20239 -0.17199,0.55773 0,0.72973 0.172,0.172 0.49897,-0.0769 0.72973,0 1.22151,0.40717 2.12889,1.97661 3.28379,2.55405 0.3126,0.1563 3.464,1.63969 3.64865,1.82433 0.086,0.086 -0.086,0.27886 0,0.36486 0.0672,0.0672 1.02736,0.29764 1.09459,0.36487 0.086,0.086 -0.10878,0.31047 0,0.36486 0.21756,0.10879 0.55773,-0.172 0.72973,0 0.172,0.172 -0.0769,0.49897 0,0.72973 0.0884,0.2651 0.87625,0.58417 1.09459,0.72973 0.58935,0.3929 1.45946,0.82852 1.45946,0.72973 0,-0.12162 -0.24324,0 -0.36486,0 -1.09236,0 -1.58144,0.052 -2.55406,-0.36486 -0.59104,-0.25331 -6.88877,-2.21102 -6.93243,-2.18919 -0.6343,0.31715 -1.21621,0.72973 -1.82432,1.09459 z"
         id="moon" />
    </g>
    <g
       id="sunGroup">
      <path
         style="fill:#f65b00;fill-opacity:1;stroke:#000000;stroke-width:2;stroke-dasharray:none;stroke-opacity:1"
         d="m 60.202701,23.716216 c -0.05548,1.37744 -0.183221,2.552472 0.364866,3.648648 0.163173,0.326345 -0.11538,0.748454 0,1.094595 0.178244,0.534731 0.882157,0.822153 1.094594,1.45946 0.169616,0.508847 0.584113,0.87699 0.729729,1.45946 0.059,0.235979 -0.134927,0.527338 0,0.729729 0.150855,0.226279 0.537429,0.172564 0.729731,0.364866 0.192299,0.192299 0.172564,0.537427 0.364866,0.729728 0.564949,0.564949 2.962084,2.325201 3.648646,2.554055 0.437838,0.145944 1.021623,-0.145947 1.459461,0 3.822284,1.274093 8.333589,0.729729 12.405404,0.729729 1.216216,0 2.432434,0 3.648649,0 0.608108,0 1.216216,0 1.824324,0 0.121623,0 0.364865,0.121621 0.364865,0 0,-0.243242 -0.557731,-0.171998 -0.729728,0 -0.268153,0.268152 -0.729732,1.866371 -0.729732,2.189189 0,0.749403 -0.429151,0.429154 -0.729729,0.729731 -0.171997,0.171998 0.172001,0.557728 0,0.729729 -0.086,0.086 -0.278865,-0.086 -0.364865,0 -0.278821,0.27882 -0.729729,2.000168 -0.729729,2.554054 0,0.757653 -0.371837,0.01394 -0.729729,0.729729 -0.193318,0.386636 0.137806,1.046044 0,1.45946 -0.086,0.257998 -0.278865,0.471731 -0.364865,0.729729 -0.359154,1.07746 0,2.852163 0,4.013515 0,0.660633 -0.08081,5.027295 0,5.108107 0.182432,0.182432 0.547295,0.182432 0.729728,0.364865 0.086,0.086 -0.05439,0.256083 0,0.364866 0.801344,1.602682 3.353822,2.953935 4.743244,3.648646 0.217564,0.108784 0.557731,-0.171997 0.729731,0 0.171998,0.172001 -0.217564,0.620948 0,0.729732 0.343996,0.171998 1.366547,0.09291 1.094595,0.364863 -0.242565,0.242565 -3.130759,0 -3.283786,0 -0.915657,0 -6.30129,0.09859 -6.93243,0.729731 -0.419566,0.419563 -0.444754,1.396857 -0.729732,1.824324 -0.06746,0.101195 -0.310472,-0.108781 -0.364865,0 -0.243242,0.486486 0.243244,1.337839 0,1.824325 -0.15384,0.307679 -0.575887,0.422048 -0.729729,0.729729 -0.02397,0.04796 -0.345035,3.579244 -0.364866,3.648649 -0.107309,0.375587 -0.975352,1.712227 -1.094594,2.189189 -0.344673,1.378696 0,3.321481 0,4.743244 0,0.245237 -0.107664,0.879263 0,1.094594 0.75924,1.518478 -0.02519,-0.390054 0.729731,0.364863 0.086,0.086 -0.086,0.278866 0,0.364866 0.086,0.086 0.256082,-0.05439 0.364863,0 1.518481,0.75924 -0.390051,-0.02519 0.364866,0.729729 0.172,0.172 0.557731,-0.171998 0.729729,0 0.03649,0.03649 0.03649,1.058108 0,1.094597 -0.412015,0.412014 -3.093495,-1.237401 -3.648647,-1.45946 -0.887462,-0.354986 -1.663422,-0.797716 -2.554054,-1.094595 -0.346141,-0.115382 -0.740625,0.08849 -1.094595,0 -1.526508,0.660718 -0.42205,-0.575889 -0.729731,-0.729731 -0.217562,-0.108781 -0.498967,0.07692 -0.729729,0 -0.163171,-0.05439 -0.201692,-0.310473 -0.364866,-0.364863 -0.350393,-0.116801 -1.109276,0.17509 -1.459457,0 -1.058008,-0.529006 -3.468786,-0.68348 -4.743244,-0.364866 -0.798367,0.199591 -3.118998,1.659538 -3.648649,2.189189 -0.171998,0.172 0.108781,0.512167 0,0.729729 -0.101764,0.20353 -0.995873,1.360741 -1.094594,1.45946 -0.086,0.086 -0.310476,-0.108781 -0.364866,0 -0.108781,0.217564 0.07692,0.49897 0,0.729731 -0.182348,0.547042 -0.768689,0.9706 -1.094595,1.459458 -0.269853,0.404781 0.153842,0.997939 0,1.45946 -0.03846,0.11538 -0.278865,-0.086 -0.364863,0 -0.0276,0.0276 -0.192092,3.475874 -0.364865,3.648649 -0.750073,0.750073 -1.743332,-1.689335 -1.824323,-1.824326 -0.481402,-0.802333 -0.331934,-1.758458 -0.729732,-2.554052 -0.90679,-1.813581 -1.462058,-6.02157 -3.283783,-6.932432 -0.343998,-0.172001 -0.774587,-0.151527 -1.094595,-0.364866 -0.101195,-0.06746 0,-0.243242 0,-0.364866 -0.243242,-0.243242 -0.422047,-0.575889 -0.729729,-0.729728 -0.595995,-0.297998 -6.991069,-0.700411 -7.662163,-0.364866 -0.307682,0.153842 -0.422048,0.575889 -0.729729,0.729731 -0.8161,0.408049 -2.034519,0.143764 -2.918921,0.364863 -0.785598,0.196401 -1.346117,0.561118 -2.189188,0.729732 -0.357778,0.07155 -0.76825,-0.163174 -1.094595,0 -0.153839,0.07692 -0.198001,0.323149 -0.364863,0.364863 -0.731777,0.182946 -1.46704,0.124148 -2.189189,0.364866 -0.364866,0.121621 -0.822642,0.63682 -1.094594,0.364865 -0.37134,-0.37134 0.860231,-0.860232 1.094594,-1.094594 0.686766,-0.686769 1.027269,-1.689674 1.459458,-2.554055 0.491741,-0.983483 0.658719,-2.047168 1.094594,-2.91892 0.217564,-0.435126 -0.117988,-0.987497 0,-1.459458 0.129514,-0.518049 0.897467,-1.232934 1.094595,-1.824326 0.365008,-1.09502 0,-3.238653 0,-4.378377 0,-0.610212 0.0738,-5.399175 0,-5.472973 -0.086,-0.086 -0.243243,0 -0.364864,0 -0.121623,-0.364866 -0.151526,-0.774586 -0.364865,-1.094594 -0.06746,-0.101195 -0.310473,0.108781 -0.364866,0 -0.57804,-1.156084 0.755052,-0.339543 -0.364863,-1.45946 -0.192302,-0.1923 -0.53743,-0.172564 -0.729731,-0.364863 -0.617916,-0.617919 -0.476676,-0.841545 -1.094595,-1.459461 -0.271954,-0.271954 -0.82264,-0.09291 -1.094594,-0.364865 -0.086,-0.086 0,-0.243242 0,-0.364866 -0.243242,-0.121621 -0.486487,-0.243242 -0.729729,-0.364863 -0.549897,-0.27495 -1.218308,-0.973392 -1.824326,-1.094595 -0.461687,-0.09234 -1.451491,0.008 -1.824323,-0.364865 -0.086,-0.086 0.108782,-0.310476 0,-0.364866 -0.72973,-0.364863 -0.547297,0.182433 -1.094595,0 -0.460541,-0.153514 -1.459459,-1.25117 -1.459459,-0.729729 0,0.490583 4.285834,-0.501025 4.743243,-0.729729 1.013359,-0.506679 2.301097,-0.603252 3.283783,-1.094594 0.286935,-0.143468 1.291712,-0.561983 1.45946,-0.729731 0.086,-0.086 -0.10878,-0.310473 0,-0.364863 0.217565,-0.108784 0.527339,0.134926 0.729729,0 0.22628,-0.150855 0.138586,-0.57888 0.364866,-0.729732 0.20239,-0.134927 0.557731,0.172 0.729729,0 0.172,-0.171998 -0.108781,-0.512167 0,-0.729729 0.271954,-0.543909 0.729731,-0.972973 1.094594,-1.45946 0.834509,-1.112679 1.018328,-0.424661 1.45946,-2.189189 0.14749,-0.589952 -0.271954,-1.280416 0,-1.824323 1.106133,-2.212266 0.729732,-4.781558 0.729732,-7.297298 0,-1.099635 0.08936,-2.010468 -0.364866,-2.91892 -0.163174,-0.326346 -0.163174,-1.42094 0,-1.094595 1.116811,2.233626 0.05512,0.757288 1.45946,1.45946 0.108781,0.05439 0,0.243245 0,0.364866 0.243242,0.121621 0.471731,0.278865 0.729729,0.364866 1.199078,0.399692 2.722949,-0.0039 4.013512,0.364863 0.739608,0.211317 1.434925,0.578876 2.189192,0.729731 1.049758,0.209952 9.391935,0.09455 9.85135,-0.364866 0.182433,-0.182432 -0.182433,-0.912161 0,-1.094594 0.086,-0.086 0.278865,0.086 0.364865,0 0.171998,-0.172 -0.059,-0.49375 0,-0.729731 0.219459,-0.877843 0.508969,-1.162045 0.729729,-1.824324 0.202819,-0.608462 -0.256482,-2.297572 0.364866,-2.918918 0.086,-0.086 0.278865,0.086 0.364863,0 0.182433,-0.182433 -0.182433,-0.912163 0,-1.094595 0.523116,-0.523114 1.471483,0.185438 2.189189,0.364865 z"
         id="sunRays" />
      <ellipse
         style="fill:#ffff00;fill-opacity:1;stroke:#000000;stroke-width:1;stroke-dasharray:none;stroke-opacity:1"
         id="sun"
         cx="57.648647"
         cy="55.459461"
         rx="18.972973"
         ry="17.513514" />
      <ellipse
         style="fill:#f65b00;fill-opacity:0;stroke:none;stroke-width:2;stroke-dasharray:none;stroke-opacity:1"
         id="sunCenter"
         cx="57.831081"
         cy="55.459457"
         rx="4.1959457"
         ry="3.2837837" />
    </g>
    <rect
       style="fill:#00ff00;stroke-width:0.264583;stroke:#280b0b"
       id="rect325"
       width="211.62163"
       height="137.55406"
       x="-1.0945946"
       y="160.54054" />
    <rect
       style="fill:#ff6600;stroke:#280b0b;stroke-width:2;stroke-dasharray:none"
       id="rect379"
       width="95.959457"
       height="91.581078"
       x="56.918919"
       y="137.55405" />
    <rect
       style="fill:#ffffff;stroke:#280b0b;stroke-width:1;stroke-dasharray:none;stroke-opacity:1"
       id="rect1888"
       width="25.905405"
       height="23.716215"
       x="70.783783"
       y="164.91891" />
    <rect
       style="fill:#d45500;fill-opacity:1;stroke:#000000;stroke-width:2;stroke-dasharray:none;stroke-opacity:1"
       id="rect3072"
       width="17.878378"
       height="45.24324"
       x="61.662163"
       y="81.364868" />
    <path
       style="fill:#741619;fill-opacity:1;stroke:#000000;stroke-width:2;stroke-dasharray:none;stroke-opacity:1"
       d="m 39.04054,150.68919 c 62.39189,-80.635136 62.02703,-80.635136 62.39189,-80.635136 0.36487,0 66.4054,76.256756 66.4054,76.256756 z"
       id="roof" />
    <rect
       style="fill:#741619;fill-opacity:1;stroke:#000000;stroke-width:2;stroke-dasharray:none;stroke-opacity:1"
       id="rect3014"
       width="22.986486"
       height="45.24324"
       x="115.66216"
       y="183.89189" />
    <path
       style="fill:#741619;fill-opacity:1;stroke:#000000;stroke-width:1;stroke-dasharray:none;stroke-opacity:1"
       d="m 70.418917,176.95946 h 25.540541 v 0 z"
       id="path3016" />
    <path
       style="display:inline;fill:#741619;fill-opacity:1;stroke:#000000;stroke-width:1;stroke-dasharray:none;stroke-opacity:1"
       d="M 83.554053,188.63513 V 165.64865 Z"
       id="path3018" />
    <ellipse
       style="fill:#ffffff;fill-opacity:0;stroke:none;stroke-width:1;stroke-dasharray:none;stroke-opacity:1"
       id="center"
       cx="106.17567"
       cy="160.54054"
       rx="4.0135136"
       ry="3.2837837" />
    <rect
       style="fill:#000000;fill-opacity:0;stroke:none;stroke-width:2;stroke-dasharray:none;stroke-opacity:1"
       id="darkness"
       width="210.52704"
       height="299.18918"
       x="0"
       y="-0.36486486" />
  </g>
</svg>
